<svg id="Layer_1" data-name="Layer 1" xmlns="http://www.w3.org/2000/svg" width="30" height="30" viewBox="0 0 30 30"><defs><style>.cls-1{fill:#00aced;}</style></defs><title>sm_share_twt</title><path class="cls-1" d="M265.5,222a15,15,0,1,0,15,15A15,15,0,0,0,265.5,222Zm7.58,12.06a10.21,10.21,0,0,1-15.71,9.07,7.22,7.22,0,0,0,5.32-1.49,3.6,3.6,0,0,1-3.36-2.49,3.6,3.6,0,0,0,1.62-.06,3.6,3.6,0,0,1-2.88-3.57,3.58,3.58,0,0,0,1.63.45,3.6,3.6,0,0,1-1.11-4.79,10.19,10.19,0,0,0,7.4,3.75,3.59,3.59,0,0,1,6.12-3.27,7.16,7.16,0,0,0,2.28-.87,3.61,3.61,0,0,1-1.58,2,7.16,7.16,0,0,0,2.06-.57A7.21,7.21,0,0,1,273.08,234.06Z" transform="translate(-250.5 -222)"/></svg>